<svg width="18" height="18" viewBox="0 0 18 18" fill="none" xmlns="http://www.w3.org/2000/svg">
<path d="M8.58333 1.74056C8.84117 1.5917 9.15883 1.5917 9.41667 1.74056L15.0785 5.00944C15.3364 5.1583 15.4952 5.4334 15.4952 5.73113V12.2689C15.4952 12.5666 15.3364 12.8417 15.0785 12.9906L9.41667 16.2594C9.15883 16.4083 8.84117 16.4083 8.58333 16.2594L2.92148 12.9906C2.66364 12.8417 2.50481 12.5666 2.50481 12.2689V5.73113C2.50481 5.4334 2.66364 5.1583 2.92148 5.00944L8.58333 1.74056Z" stroke="white" stroke-linejoin="round"/>
<path fill-rule="evenodd" clip-rule="evenodd" d="M10.565 6.84599L9.00006 5.25L7.43508 6.84599L5.43359 7.84119L6.46787 9.82276L6.79586 12.0338L9.00003 11.4529L11.2043 12.0338L11.5322 9.82276L12.5665 7.84119L10.565 6.84599ZM8.99994 10.5C9.82836 10.5 10.4999 9.82846 10.4999 9.00003C10.4999 8.17161 9.82836 7.50003 8.99994 7.50003C8.17151 7.50003 7.49994 8.17161 7.49994 9.00003C7.49994 9.82846 8.17151 10.5 8.99994 10.5Z" fill="white"/>
<path d="M9.00006 5.25L9.23806 5.01662C9.17537 4.95269 9.08959 4.91667 9.00006 4.91667C8.91052 4.91667 8.82474 4.95269 8.76205 5.01662L9.00006 5.25ZM10.565 6.84599L10.327 7.07937C10.3531 7.10591 10.3833 7.12791 10.4166 7.14446L10.565 6.84599ZM7.43508 6.84599L7.58349 7.14446C7.61677 7.12791 7.64705 7.10591 7.67308 7.07937L7.43508 6.84599ZM5.43359 7.84119L5.28518 7.54271C5.20501 7.58258 5.14424 7.65302 5.11657 7.73818C5.08891 7.82334 5.09666 7.91605 5.13809 7.99542L5.43359 7.84119ZM6.46787 9.82276L6.79759 9.77385C6.79214 9.73707 6.78057 9.70148 6.76337 9.66852L6.46787 9.82276ZM6.79586 12.0338L6.46614 12.0827C6.48005 12.1765 6.53323 12.2599 6.61237 12.3121C6.69152 12.3643 6.78914 12.3803 6.88081 12.3561L6.79586 12.0338ZM9.00003 11.4529L9.08498 11.1306C9.0293 11.1159 8.97076 11.1159 8.91508 11.1306L9.00003 11.4529ZM11.2043 12.0338L11.1193 12.3561C11.211 12.3803 11.3086 12.3643 11.3877 12.3121C11.4669 12.2599 11.5201 12.1765 11.534 12.0827L11.2043 12.0338ZM11.5322 9.82276L11.2367 9.66852C11.2195 9.70148 11.208 9.73707 11.2025 9.77385L11.5322 9.82276ZM12.5665 7.84119L12.862 7.99542C12.9035 7.91605 12.9112 7.82334 12.8835 7.73818C12.8559 7.65302 12.7951 7.58258 12.7149 7.54271L12.5665 7.84119ZM8.76205 5.48338L10.327 7.07937L10.803 6.61261L9.23806 5.01662L8.76205 5.48338ZM7.67308 7.07937L9.23806 5.48338L8.76205 5.01662L7.19707 6.61261L7.67308 7.07937ZM5.582 8.13966L7.58349 7.14446L7.28667 6.54752L5.28518 7.54271L5.582 8.13966ZM6.76337 9.66852L5.7291 7.68695L5.13809 7.99542L6.17236 9.97699L6.76337 9.66852ZM7.12559 11.9849L6.79759 9.77385L6.13814 9.87167L6.46614 12.0827L7.12559 11.9849ZM8.91508 11.1306L6.71091 11.7115L6.88081 12.3561L9.08498 11.7752L8.91508 11.1306ZM11.2892 11.7115L9.08498 11.1306L8.91508 11.7752L11.1193 12.3561L11.2892 11.7115ZM11.2025 9.77385L10.8745 11.9849L11.534 12.0827L11.862 9.87167L11.2025 9.77385ZM12.271 7.68695L11.2367 9.66852L11.8277 9.97699L12.862 7.99542L12.271 7.68695ZM10.4166 7.14446L12.4181 8.13966L12.7149 7.54271L10.7134 6.54752L10.4166 7.14446ZM10.1666 9.00003C10.1666 9.64437 9.64427 10.1667 8.99994 10.1667V10.8334C10.0125 10.8334 10.8333 10.0126 10.8333 9.00003H10.1666ZM8.99994 7.83337C9.64427 7.83337 10.1666 8.3557 10.1666 9.00003H10.8333C10.8333 7.98751 10.0125 7.1667 8.99994 7.1667V7.83337ZM7.83327 9.00003C7.83327 8.3557 8.3556 7.83337 8.99994 7.83337V7.1667C7.98742 7.1667 7.1666 7.98751 7.1666 9.00003H7.83327ZM8.99994 10.1667C8.3556 10.1667 7.83327 9.64437 7.83327 9.00003H7.1666C7.1666 10.0126 7.98742 10.8334 8.99994 10.8334V10.1667Z" fill="white"/>
</svg>
