<svg xmlns="http://www.w3.org/2000/svg" width="40" height="33" fill="none" viewBox="0 0 40 33">
  <g clip-path="url(#clip0)">
    <path fill="#8247E5" d="M28.075 10.788c-.686-.405-1.579-.405-2.334 0l-5.354 3.106-3.638 2.025-5.354 3.106c-.687.405-1.579.405-2.334 0l-4.256-2.43c-.686-.406-1.167-1.148-1.167-1.959V9.843c0-.81.412-1.553 1.167-1.958l4.187-2.363c.687-.405 1.579-.405 2.334 0l4.187 2.363c.687.405 1.167 1.148 1.167 1.958v3.106l3.638-2.093V7.75c0-.81-.412-1.552-1.167-1.957l-7.756-4.456c-.687-.405-1.579-.405-2.334 0L1.167 5.793A2.183 2.183 0 0 0 0 7.75v8.98c0 .81.412 1.552 1.167 1.957l7.894 4.456c.686.405 1.579.405 2.334 0l5.354-3.038 3.638-2.093 5.354-3.038c.687-.405 1.579-.405 2.334 0l4.187 2.363c.687.405 1.167 1.148 1.167 1.958v4.793c0 .81-.412 1.553-1.167 1.958l-4.187 2.43c-.686.405-1.579.405-2.334 0l-4.187-2.363c-.686-.405-1.167-1.148-1.167-1.958V21.05l-3.638 2.093v3.105c0 .81.412 1.553 1.167 1.958l7.894 4.456c.686.405 1.579.405 2.334 0l7.894-4.456c.686-.405 1.167-1.148 1.167-1.958V17.27c0-.81-.412-1.552-1.167-1.957l-7.963-4.524z"/>
  </g>
</svg>
